<svg t="1517311285556" class="icon" style="" viewBox="0 0 1024 1024" version="1.1" xmlns="http://www.w3.org/2000/svg" p-id="2267" xmlns:xlink="http://www.w3.org/1999/xlink" width="200" height="200"><defs><style type="text/css"></style></defs><path d="M388.146868 0l-300.786177 0C39.19067 0 0 39.19067 0 87.360691l0 300.786177C0 436.31689 39.19067 475.507559 87.360691 475.507559l300.786177 0c48.170022 0 87.360691-39.19067 87.360691-87.360691l0-300.786177C475.507559 39.19067 436.31689 0 388.146868 0zM442.332613 388.146868c0 29.877356-24.308389 54.185745-54.185745 54.185745l-300.786177 0C57.483335 442.332613 33.174946 418.024225 33.174946 388.146868l0-300.786177C33.174946 57.483335 57.483335 33.174946 87.360691 33.174946l300.786177 0c29.877356 0 54.185745 24.308389 54.185745 54.185745L442.332613 388.146868z" p-id="2268" fill="#ffffff"></path><path d="M936.639309 0l-300.786177 0C587.68311 0 548.492441 39.19067 548.492441 87.360691l0 300.786177c0 48.170022 39.19067 87.360691 87.360691 87.360691l300.786177 0c48.170022 0 87.360691-39.19067 87.360691-87.360691l0-300.786177C1024 39.19067 984.80933 0 936.639309 0zM990.825054 388.146868c0 29.877356-24.308389 54.185745-54.185745 54.185745l-300.786177 0c-29.877356 0-54.185745-24.308389-54.185745-54.185745l0-300.786177c0-29.877356 24.308389-54.185745 54.185745-54.185745l300.786177 0c29.877356 0 54.185745 24.308389 54.185745 54.185745L990.825054 388.146868z" p-id="2269" fill="#ffffff"></path><path d="M388.146868 548.492441l-300.786177 0C39.19067 548.492441 0 587.68311 0 635.853132l0 300.786177C0 984.80933 39.19067 1024 87.360691 1024l300.786177 0c48.170022 0 87.360691-39.19067 87.360691-87.360691l0-300.786177C475.507559 587.68311 436.31689 548.492441 388.146868 548.492441zM442.332613 936.639309c0 29.877356-24.308389 54.185745-54.185745 54.185745l-300.786177 0C57.483335 990.825054 33.174946 966.516665 33.174946 936.639309l0-300.786177c0-29.877356 24.308389-54.185745 54.185745-54.185745l300.786177 0c29.877356 0 54.185745 24.308389 54.185745 54.185745L442.332613 936.639309z" p-id="2270" fill="#ffffff"></path><path d="M936.639309 548.492441l-300.786177 0c-48.170022 0-87.360691 39.19067-87.360691 87.360691l0 300.786177c0 48.170022 39.19067 87.360691 87.360691 87.360691l300.786177 0c48.170022 0 87.360691-39.19067 87.360691-87.360691l0-300.786177C1024 587.68311 984.80933 548.492441 936.639309 548.492441zM990.825054 936.639309c0 29.877356-24.308389 54.185745-54.185745 54.185745l-300.786177 0c-29.877356 0-54.185745-24.308389-54.185745-54.185745l0-300.786177c0-29.877356 24.308389-54.185745 54.185745-54.185745l300.786177 0c29.877356 0 54.185745 24.308389 54.185745 54.185745L990.825054 936.639309z" p-id="2271" fill="#ffffff"></path></svg>