<?xml version="1.0" standalone="no"?><!DOCTYPE svg PUBLIC "-//W3C//DTD SVG 1.1//EN" "http://www.w3.org/Graphics/SVG/1.1/DTD/svg11.dtd"><svg t="1517115894850" class="icon" style="" viewBox="0 0 1024 1024" version="1.1" xmlns="http://www.w3.org/2000/svg" p-id="1869" xmlns:xlink="http://www.w3.org/1999/xlink" width="200" height="200"><defs><style type="text/css"></style></defs><path d="M887.654282 300.920692 171.554257 300.920692c-46.542198 0-84.390994-37.872332-84.390994-84.390994s37.848795-84.390994 84.390994-84.390994l716.100025 0c46.496147 0 84.321406 37.872332 84.321406 84.390994S934.150429 300.920692 887.654282 300.920692zM171.554257 155.815053c-33.479068 0-60.715669 27.236601-60.715669 60.715669s27.236601 60.715669 60.715669 60.715669l716.100025 0c33.433017 0 60.646081-27.236601 60.646081-60.715669s-27.213064-60.715669-60.646081-60.715669L171.554257 155.815053z" p-id="1870"></path><path d="M740.55924 573.609058 171.508206 573.609058c-46.542198 0-84.390994-37.872332-84.390994-84.390994s37.848795-84.344943 84.390994-84.344943l569.051034 0c46.519685 0 84.344943 37.825258 84.344943 84.344943S787.077901 573.609058 740.55924 573.609058zM171.508206 428.548446c-33.479068 0-60.715669 27.236601-60.715669 60.669618 0 33.479068 27.236601 60.715669 60.715669 60.715669l569.051034 0c33.455531 0 60.669618-27.236601 60.669618-60.715669 0-33.433017-27.213064-60.669618-60.669618-60.669618L171.508206 428.548446z" p-id="1871"></path><path d="M593.602351 846.25035 171.554257 846.25035c-46.542198 0-84.390994-37.825258-84.390994-84.298892 0-46.519685 37.848795-84.390994 84.390994-84.390994l422.048094 0c46.496147 0.046051 84.321406 37.918383 84.321406 84.390994C677.924779 808.424069 640.098498 846.25035 593.602351 846.25035zM171.554257 701.235789c-33.479068 0-60.715669 27.236601-60.715669 60.715669 0 33.433017 27.236601 60.622544 60.715669 60.622544l422.048094 0c33.433017 0 60.646081-27.19055 60.646081-60.622544 0-33.433017-27.213064-60.669618-60.669618-60.715669L171.554257 701.235789z" p-id="1872"></path></svg>